<mxfile host="app.diagrams.net" modified="2022-12-08T12:52:04.008Z" agent="5.0 (Windows NT 10.0; Win64; x64) AppleWebKit/537.36 (KHTML, like Gecko) Chrome/107.0.0.0 Safari/537.36" etag="y7ux0CBtL7agzPI_wDqp" version="20.6.0" type="github">
  <diagram id="kgpKYQtTHZ0yAKxKKP6v" name="Page-1">
    <mxGraphModel dx="1422" dy="738" grid="1" gridSize="10" guides="1" tooltips="1" connect="1" arrows="1" fold="1" page="1" pageScale="1" pageWidth="850" pageHeight="1100" math="0" shadow="0">
      <root>
        <mxCell id="0" />
        <mxCell id="1" parent="0" />
        <mxCell id="3nuBFxr9cyL0pnOWT2aG-1" value="/Account/Login" style="shape=umlLifeline;perimeter=lifelinePerimeter;container=1;collapsible=0;recursiveResize=0;rounded=0;shadow=0;strokeWidth=1;" parent="1" vertex="1">
          <mxGeometry x="120" y="80" width="120" height="420" as="geometry" />
        </mxCell>
        <mxCell id="3nuBFxr9cyL0pnOWT2aG-2" value="" style="points=[];perimeter=orthogonalPerimeter;rounded=0;shadow=0;strokeWidth=1;" parent="3nuBFxr9cyL0pnOWT2aG-1" vertex="1">
          <mxGeometry x="55" y="65" width="10" height="190" as="geometry" />
        </mxCell>
        <mxCell id="3nuBFxr9cyL0pnOWT2aG-5" value="/authorization.oauth2" style="shape=umlLifeline;perimeter=lifelinePerimeter;container=1;collapsible=0;recursiveResize=0;rounded=0;shadow=0;strokeWidth=1;" parent="1" vertex="1">
          <mxGeometry x="300" y="80" width="130" height="300" as="geometry" />
        </mxCell>
        <mxCell id="3nuBFxr9cyL0pnOWT2aG-6" value="" style="points=[];perimeter=orthogonalPerimeter;rounded=0;shadow=0;strokeWidth=1;" parent="3nuBFxr9cyL0pnOWT2aG-5" vertex="1">
          <mxGeometry x="60" y="80" width="10" height="160" as="geometry" />
        </mxCell>
        <mxCell id="qZ4M8_aw5pfXrsbKv5BA-2" value="" style="edgeStyle=orthogonalEdgeStyle;rounded=0;orthogonalLoop=1;jettySize=auto;html=1;" edge="1" parent="1" source="qZ4M8_aw5pfXrsbKv5BA-1" target="3nuBFxr9cyL0pnOWT2aG-2">
          <mxGeometry relative="1" as="geometry">
            <Array as="points">
              <mxPoint x="150" y="150" />
              <mxPoint x="150" y="150" />
            </Array>
          </mxGeometry>
        </mxCell>
        <mxCell id="qZ4M8_aw5pfXrsbKv5BA-1" value="customer" style="shape=umlActor;verticalLabelPosition=bottom;verticalAlign=top;html=1;" vertex="1" parent="1">
          <mxGeometry x="70" y="120" width="30" height="60" as="geometry" />
        </mxCell>
        <mxCell id="qZ4M8_aw5pfXrsbKv5BA-3" style="edgeStyle=orthogonalEdgeStyle;rounded=0;orthogonalLoop=1;jettySize=auto;html=1;" edge="1" parent="1" source="3nuBFxr9cyL0pnOWT2aG-2" target="3nuBFxr9cyL0pnOWT2aG-5">
          <mxGeometry relative="1" as="geometry">
            <Array as="points">
              <mxPoint x="290" y="170" />
              <mxPoint x="290" y="170" />
            </Array>
          </mxGeometry>
        </mxCell>
        <mxCell id="qZ4M8_aw5pfXrsbKv5BA-4" value="redirect" style="edgeLabel;html=1;align=center;verticalAlign=middle;resizable=0;points=[];" vertex="1" connectable="0" parent="qZ4M8_aw5pfXrsbKv5BA-3">
          <mxGeometry x="-0.1434" relative="1" as="geometry">
            <mxPoint x="8" y="20" as="offset" />
          </mxGeometry>
        </mxCell>
        <mxCell id="qZ4M8_aw5pfXrsbKv5BA-6" style="edgeStyle=orthogonalEdgeStyle;rounded=0;orthogonalLoop=1;jettySize=auto;html=1;" edge="1" parent="1" source="3nuBFxr9cyL0pnOWT2aG-6" target="qZ4M8_aw5pfXrsbKv5BA-5">
          <mxGeometry relative="1" as="geometry">
            <Array as="points">
              <mxPoint x="468" y="190" />
              <mxPoint x="468" y="200" />
            </Array>
          </mxGeometry>
        </mxCell>
        <mxCell id="qZ4M8_aw5pfXrsbKv5BA-8" value="redirectUrl" style="edgeLabel;html=1;align=center;verticalAlign=middle;resizable=0;points=[];" vertex="1" connectable="0" parent="qZ4M8_aw5pfXrsbKv5BA-6">
          <mxGeometry x="0.1243" relative="1" as="geometry">
            <mxPoint as="offset" />
          </mxGeometry>
        </mxCell>
        <mxCell id="qZ4M8_aw5pfXrsbKv5BA-7" value="/Account/SSOLogin" style="shape=umlLifeline;perimeter=lifelinePerimeter;whiteSpace=wrap;html=1;container=1;collapsible=0;recursiveResize=0;outlineConnect=0;" vertex="1" parent="1">
          <mxGeometry x="450" y="80" width="120" height="550" as="geometry" />
        </mxCell>
        <mxCell id="qZ4M8_aw5pfXrsbKv5BA-5" value="" style="points=[];perimeter=orthogonalPerimeter;rounded=0;shadow=0;strokeWidth=1;" vertex="1" parent="qZ4M8_aw5pfXrsbKv5BA-7">
          <mxGeometry x="55" y="110" width="10" height="380" as="geometry" />
        </mxCell>
        <mxCell id="qZ4M8_aw5pfXrsbKv5BA-26" value="" style="html=1;points=[];perimeter=orthogonalPerimeter;" vertex="1" parent="qZ4M8_aw5pfXrsbKv5BA-7">
          <mxGeometry x="55" y="330" width="15" height="40" as="geometry" />
        </mxCell>
        <mxCell id="qZ4M8_aw5pfXrsbKv5BA-27" value="savepartnerinfo" style="edgeStyle=orthogonalEdgeStyle;html=1;align=left;spacingLeft=2;endArrow=block;rounded=0;entryX=1;entryY=0;" edge="1" target="qZ4M8_aw5pfXrsbKv5BA-26" parent="qZ4M8_aw5pfXrsbKv5BA-7">
          <mxGeometry x="0.1429" y="20" relative="1" as="geometry">
            <mxPoint x="60" y="310" as="sourcePoint" />
            <Array as="points">
              <mxPoint x="90" y="310" />
            </Array>
            <mxPoint as="offset" />
          </mxGeometry>
        </mxCell>
        <mxCell id="qZ4M8_aw5pfXrsbKv5BA-28" value="" style="html=1;points=[];perimeter=orthogonalPerimeter;" vertex="1" parent="qZ4M8_aw5pfXrsbKv5BA-7">
          <mxGeometry x="55" y="410" width="17" height="40" as="geometry" />
        </mxCell>
        <mxCell id="qZ4M8_aw5pfXrsbKv5BA-29" value="SaveUserCompanyMapping" style="edgeStyle=orthogonalEdgeStyle;html=1;align=left;spacingLeft=2;endArrow=block;rounded=0;entryX=1;entryY=0;" edge="1" target="qZ4M8_aw5pfXrsbKv5BA-28" parent="qZ4M8_aw5pfXrsbKv5BA-7" source="qZ4M8_aw5pfXrsbKv5BA-5">
          <mxGeometry relative="1" as="geometry">
            <mxPoint x="70" y="400" as="sourcePoint" />
            <Array as="points">
              <mxPoint x="100" y="400" />
              <mxPoint x="100" y="420" />
            </Array>
          </mxGeometry>
        </mxCell>
        <mxCell id="qZ4M8_aw5pfXrsbKv5BA-9" value="Auth.cma-cgm.com" style="shape=umlLifeline;perimeter=lifelinePerimeter;whiteSpace=wrap;html=1;container=1;collapsible=0;recursiveResize=0;outlineConnect=0;" vertex="1" parent="1">
          <mxGeometry x="590" y="80" width="100" height="300" as="geometry" />
        </mxCell>
        <mxCell id="qZ4M8_aw5pfXrsbKv5BA-10" value="" style="points=[];perimeter=orthogonalPerimeter;rounded=0;shadow=0;strokeWidth=1;" vertex="1" parent="qZ4M8_aw5pfXrsbKv5BA-9">
          <mxGeometry x="45" y="130" width="10" height="80" as="geometry" />
        </mxCell>
        <mxCell id="qZ4M8_aw5pfXrsbKv5BA-11" style="edgeStyle=orthogonalEdgeStyle;rounded=0;orthogonalLoop=1;jettySize=auto;html=1;" edge="1" parent="1" source="qZ4M8_aw5pfXrsbKv5BA-5">
          <mxGeometry relative="1" as="geometry">
            <mxPoint x="640" y="220" as="targetPoint" />
            <Array as="points">
              <mxPoint x="636" y="220" />
            </Array>
          </mxGeometry>
        </mxCell>
        <mxCell id="qZ4M8_aw5pfXrsbKv5BA-12" value="getLoginUserInfo" style="edgeLabel;html=1;align=center;verticalAlign=middle;resizable=0;points=[];" vertex="1" connectable="0" parent="qZ4M8_aw5pfXrsbKv5BA-11">
          <mxGeometry x="-0.2489" y="-4" relative="1" as="geometry">
            <mxPoint x="12" y="-34" as="offset" />
          </mxGeometry>
        </mxCell>
        <mxCell id="qZ4M8_aw5pfXrsbKv5BA-17" style="edgeStyle=orthogonalEdgeStyle;rounded=0;orthogonalLoop=1;jettySize=auto;html=1;" edge="1" parent="1" source="qZ4M8_aw5pfXrsbKv5BA-10" target="qZ4M8_aw5pfXrsbKv5BA-7">
          <mxGeometry relative="1" as="geometry">
            <Array as="points">
              <mxPoint x="610" y="280" />
              <mxPoint x="610" y="280" />
            </Array>
          </mxGeometry>
        </mxCell>
        <mxCell id="qZ4M8_aw5pfXrsbKv5BA-19" value="&quot;https://apis-pre.cma-cgm.com/pre-ecom&lt;br&gt;/customerprofile-api/v3/customers/{0}/partners" style="edgeStyle=orthogonalEdgeStyle;rounded=0;orthogonalLoop=1;jettySize=auto;html=1;" edge="1" parent="1" source="qZ4M8_aw5pfXrsbKv5BA-5" target="qZ4M8_aw5pfXrsbKv5BA-18">
          <mxGeometry x="0.1154" y="-30" relative="1" as="geometry">
            <Array as="points">
              <mxPoint x="650" y="310" />
              <mxPoint x="650" y="310" />
            </Array>
            <mxPoint as="offset" />
          </mxGeometry>
        </mxCell>
        <mxCell id="qZ4M8_aw5pfXrsbKv5BA-22" value="LARA" style="shape=umlLifeline;perimeter=lifelinePerimeter;whiteSpace=wrap;html=1;container=1;collapsible=0;recursiveResize=0;outlineConnect=0;" vertex="1" parent="1">
          <mxGeometry x="730" y="80" width="100" height="300" as="geometry" />
        </mxCell>
        <mxCell id="qZ4M8_aw5pfXrsbKv5BA-18" value="" style="points=[];perimeter=orthogonalPerimeter;rounded=0;shadow=0;strokeWidth=1;" vertex="1" parent="qZ4M8_aw5pfXrsbKv5BA-22">
          <mxGeometry x="45" y="120" width="10" height="180" as="geometry" />
        </mxCell>
        <mxCell id="qZ4M8_aw5pfXrsbKv5BA-30" style="edgeStyle=orthogonalEdgeStyle;rounded=0;orthogonalLoop=1;jettySize=auto;html=1;" edge="1" parent="1" source="qZ4M8_aw5pfXrsbKv5BA-18" target="qZ4M8_aw5pfXrsbKv5BA-7">
          <mxGeometry relative="1" as="geometry">
            <Array as="points">
              <mxPoint x="590" y="360" />
              <mxPoint x="590" y="360" />
            </Array>
          </mxGeometry>
        </mxCell>
      </root>
    </mxGraphModel>
  </diagram>
</mxfile>
